<svg width="414" height="116" viewBox="0 0 414 116" fill="none" xmlns="http://www.w3.org/2000/svg">
<path fill-rule="evenodd" clip-rule="evenodd" d="M46.9327 252.306C28.6387 207.485 -43.859 167.258 -2.12592 121.614C40.6071 74.877 129.517 110.033 196.869 88.3196C262.456 67.1754 309.28 -4.50405 373.099 0.64798C438.672 5.94162 468.534 60.9986 474.362 110.721C479.58 155.246 438.363 199.888 401.424 242.309C368.679 279.914 330.422 313.8 278.715 335.406C219.81 360.019 149.768 387.069 98.7573 368.78C48.5814 350.791 63.6045 293.152 46.9327 252.306Z" fill="#E2E5FF"/>
<path fill-rule="evenodd" clip-rule="evenodd" d="M46.9327 252.306C28.6387 207.485 -43.859 167.258 -2.12592 121.614C40.6071 74.877 129.517 110.033 196.869 88.3196C262.456 67.1754 309.28 -4.50405 373.099 0.64798C438.672 5.94162 468.534 60.9986 474.362 110.721C479.58 155.246 438.363 199.888 401.424 242.309C368.679 279.914 330.422 313.8 278.715 335.406C219.81 360.019 149.768 387.069 98.7573 368.78C48.5814 350.791 63.6045 293.152 46.9327 252.306Z" fill="#E2E5FF"/>
<path fill-rule="evenodd" clip-rule="evenodd" d="M46.9327 252.306C28.6387 207.485 -43.859 167.258 -2.12592 121.614C40.6071 74.877 129.517 110.033 196.869 88.3196C262.456 67.1754 309.28 -4.50405 373.099 0.64798C438.672 5.94162 468.534 60.9986 474.362 110.721C479.58 155.246 438.363 199.888 401.424 242.309C368.679 279.914 330.422 313.8 278.715 335.406C219.81 360.019 149.768 387.069 98.7573 368.78C48.5814 350.791 63.6045 293.152 46.9327 252.306Z" fill="#E2E5FF"/>
</svg>
