<svg width="414" height="245" viewBox="0 0 414 245" fill="none" xmlns="http://www.w3.org/2000/svg">
<path fill-rule="evenodd" clip-rule="evenodd" d="M113.835 443.508C69.3817 370.2 -43.4654 308.463 -10.2105 229.443C23.8411 148.529 155.701 200.636 233.311 159.608C308.886 119.657 336.765 -3.08386 422.159 0.87816C509.9 4.94904 574.117 94.4641 604.612 176.836C631.92 250.597 598.874 327.911 570.371 401.219C545.104 466.203 510.952 525.394 453.646 565.11C388.362 610.356 309.712 660.463 234.926 633.7C161.364 607.376 154.345 510.314 113.835 443.508Z" fill="#E2E5FF"/>
<path fill-rule="evenodd" clip-rule="evenodd" d="M113.835 443.508C69.3817 370.2 -43.4654 308.463 -10.2105 229.443C23.8411 148.529 155.701 200.636 233.311 159.608C308.886 119.657 336.765 -3.08386 422.159 0.87816C509.9 4.94904 574.117 94.4641 604.612 176.836C631.92 250.597 598.874 327.911 570.371 401.219C545.104 466.203 510.952 525.394 453.646 565.11C388.362 610.356 309.712 660.463 234.926 633.7C161.364 607.376 154.345 510.314 113.835 443.508Z" fill="#E2E5FF"/>
<path fill-rule="evenodd" clip-rule="evenodd" d="M113.835 443.508C69.3817 370.2 -43.4654 308.463 -10.2105 229.443C23.8411 148.529 155.701 200.636 233.311 159.608C308.886 119.657 336.765 -3.08386 422.159 0.87816C509.9 4.94904 574.117 94.4641 604.612 176.836C631.92 250.597 598.874 327.911 570.371 401.219C545.104 466.203 510.952 525.394 453.646 565.11C388.362 610.356 309.712 660.463 234.926 633.7C161.364 607.376 154.345 510.314 113.835 443.508Z" fill="#E2E5FF"/>
</svg>
