<svg width="414" height="111" viewBox="0 0 414 111" fill="none" xmlns="http://www.w3.org/2000/svg">
<path fill-rule="evenodd" clip-rule="evenodd" d="M364.8 306.514C379.293 222.015 461.663 123.216 401.762 61.8817C340.425 -0.922382 236.837 95.8837 149.591 86.1543C64.6319 76.68 -6.29036 -27.3033 -84.2905 7.67895C-164.435 43.6227 -191.378 150.445 -189.563 238.261C-187.938 316.898 -128.856 376.722 -75.4698 434.483C-28.1451 485.686 25.3235 528.242 93.1977 544.193C170.522 562.364 262.063 580.161 321.837 527.852C380.633 476.399 351.592 383.519 364.8 306.514Z" fill="#E2E5FF"/>
<path fill-rule="evenodd" clip-rule="evenodd" d="M364.8 306.514C379.293 222.015 461.663 123.216 401.762 61.8817C340.425 -0.922382 236.837 95.8837 149.591 86.1543C64.6319 76.68 -6.29036 -27.3033 -84.2905 7.67895C-164.435 43.6227 -191.378 150.445 -189.563 238.261C-187.938 316.898 -128.856 376.722 -75.4698 434.483C-28.1451 485.686 25.3235 528.242 93.1977 544.193C170.522 562.364 262.063 580.161 321.837 527.852C380.633 476.399 351.592 383.519 364.8 306.514Z" fill="#E2E5FF"/>
<path fill-rule="evenodd" clip-rule="evenodd" d="M364.8 306.514C379.293 222.015 461.663 123.216 401.762 61.8817C340.425 -0.922382 236.837 95.8837 149.591 86.1543C64.6319 76.68 -6.29036 -27.3033 -84.2905 7.67895C-164.435 43.6227 -191.378 150.445 -189.563 238.261C-187.938 316.898 -128.856 376.722 -75.4698 434.483C-28.1451 485.686 25.3235 528.242 93.1977 544.193C170.522 562.364 262.063 580.161 321.837 527.852C380.633 476.399 351.592 383.519 364.8 306.514Z" fill="#E2E5FF"/>
</svg>
