<svg width="93" height="94" viewBox="0 0 93 94" fill="none" xmlns="http://www.w3.org/2000/svg">
<g filter="url(#filter0_d_1_31)">
<circle cx="45" cy="35" r="25" fill="#FBFBFB"/>
<circle cx="45" cy="35" r="24.5" stroke="#E1E1E1"/>
</g>
<path d="M56.7666 32.6498H55.8V32.6H45V37.4H51.7818C50.7924 40.1942 48.1338 42.2 45 42.2C41.0238 42.2 37.8 38.9762 37.8 35C37.8 31.0238 41.0238 27.8 45 27.8C46.8354 27.8 48.5052 28.4924 49.7766 29.6234L53.1708 26.2292C51.0276 24.2318 48.1608 23 45 23C38.373 23 33 28.373 33 35C33 41.627 38.373 47 45 47C51.627 47 57 41.627 57 35C57 34.1954 56.9172 33.41 56.7666 32.6498Z" fill="#FBC02D"/>
<path d="M34.3837 29.4146L38.3263 32.306C39.3931 29.6648 41.9767 27.8 45.0001 27.8C46.8355 27.8 48.5053 28.4924 49.7767 29.6234L53.1709 26.2292C51.0277 24.2318 48.1609 23 45.0001 23C40.3909 23 36.3937 25.6022 34.3837 29.4146Z" fill="#E53935"/>
<path d="M45 46.9999C48.0996 46.9999 50.916 45.8137 53.0454 43.8847L49.3314 40.7419C48.1266 41.6545 46.629 42.1999 45 42.1999C41.8788 42.1999 39.2286 40.2097 38.2302 37.4323L34.317 40.4473C36.303 44.3335 40.3362 46.9999 45 46.9999Z" fill="#4CAF50"/>
<path d="M56.7666 32.6497L56.757 32.5999H55.8H45V37.3999H51.7818C51.3066 38.7421 50.4432 39.8995 49.3296 40.7425C49.3302 40.7419 49.3308 40.7419 49.3314 40.7413L53.0454 43.8841C52.7826 44.1229 57 40.9999 57 34.9999C57 34.1953 56.9172 33.4099 56.7666 32.6497Z" fill="#1565C0"/>
<defs>
<filter id="filter0_d_1_31" x="-1" y="0" width="94" height="94" filterUnits="userSpaceOnUse" color-interpolation-filters="sRGB">
<feFlood flood-opacity="0" result="BackgroundImageFix"/>
<feColorMatrix in="SourceAlpha" type="matrix" values="0 0 0 0 0 0 0 0 0 0 0 0 0 0 0 0 0 0 127 0" result="hardAlpha"/>
<feOffset dx="1" dy="12"/>
<feGaussianBlur stdDeviation="11"/>
<feComposite in2="hardAlpha" operator="out"/>
<feColorMatrix type="matrix" values="0 0 0 0 0 0 0 0 0 0 0 0 0 0 0 0 0 0 0.11 0"/>
<feBlend mode="normal" in2="BackgroundImageFix" result="effect1_dropShadow_1_31"/>
<feBlend mode="normal" in="SourceGraphic" in2="effect1_dropShadow_1_31" result="shape"/>
</filter>
</defs>
</svg>
